<svg aria-hidden="true" style="position: absolute; width: 0; height: 0; overflow: hidden;" version="1.1" xmlns="http://www.w3.org/2000/svg" xmlns:xlink="http://www.w3.org/1999/xlink">
<defs>
<symbol id="icon-Logo-1" viewBox="0 0 32 32">
<path d="M16.471 15.829c-0.118-0.152-0.189-0.345-0.189-0.554 0-0.021 0.001-0.041 0.002-0.061l-0 0.003v-0.889c0-0.272 0.062-0.479 0.186-0.621s0.336-0.212 0.637-0.212c0.283 0 0.484 0.060 0.602 0.181 0.129 0.154 0.192 0.342 0.178 0.531v0.209h-0.506v-0.212c0.002-0.069-0.003-0.138-0.015-0.207-0.009-0.050-0.035-0.093-0.072-0.123l-0-0c-0.045-0.030-0.101-0.049-0.161-0.049-0.008 0-0.015 0-0.023 0.001l0.001-0c-0.007-0.001-0.014-0.001-0.022-0.001-0.064 0-0.123 0.019-0.172 0.052l0.001-0.001c-0.042 0.034-0.072 0.080-0.083 0.134l-0 0.002c-0.013 0.061-0.020 0.131-0.020 0.203 0 0.006 0 0.012 0 0.018v-0.001 1.078c-0.001 0.012-0.002 0.026-0.002 0.041 0 0.096 0.025 0.186 0.068 0.265l-0.001-0.003c0.026 0.033 0.060 0.058 0.099 0.073l0.002 0.001c0.041 0.016 0.086 0.022 0.131 0.017 0.065 0.005 0.129-0.013 0.179-0.049 0.039-0.033 0.066-0.078 0.075-0.13l0-0.001c0.012-0.071 0.017-0.144 0.016-0.216v-0.219h0.506v0.2c0.001 0.016 0.002 0.034 0.002 0.052 0 0.192-0.067 0.369-0.178 0.508l0.001-0.002c-0.116 0.132-0.314 0.198-0.606 0.198s-0.511-0.070-0.636-0.217zM18.577 15.838c-0.128-0.138-0.192-0.34-0.192-0.607v-0.935c0-0.264 0.064-0.464 0.192-0.599s0.342-0.203 0.641-0.202c0.298 0 0.51 0.068 0.638 0.202s0.193 0.335 0.193 0.599v0.935c0 0.264-0.065 0.466-0.195 0.606s-0.342 0.209-0.636 0.209-0.512-0.070-0.641-0.208zM19.454 15.614c0.046-0.087 0.067-0.182 0.061-0.277v-1.145c0.001-0.009 0.001-0.020 0.001-0.030 0-0.088-0.022-0.171-0.062-0.243l0.001 0.003c-0.027-0.033-0.061-0.059-0.101-0.074l-0.002-0.001c-0.029-0.011-0.063-0.018-0.099-0.018-0.012 0-0.024 0.001-0.036 0.002l0.001-0c-0.010-0.001-0.022-0.002-0.034-0.002-0.036 0-0.070 0.007-0.102 0.019l0.002-0.001c-0.042 0.016-0.077 0.041-0.104 0.074l-0 0c-0.046 0.085-0.067 0.178-0.061 0.271v1.15c-0.006 0.095 0.014 0.19 0.061 0.277 0.030 0.029 0.066 0.052 0.107 0.069 0.039 0.015 0.083 0.024 0.13 0.024s0.091-0.009 0.132-0.025l-0.002 0.001c0.041-0.016 0.077-0.040 0.107-0.069v-0.006zM20.658 13.522h0.545l0.41 1.725 0.419-1.725h0.53l0.054 2.489h-0.392l-0.042-1.73-0.404 1.73h-0.314l-0.419-1.736-0.039 1.736h-0.396l0.049-2.489zM23.226 13.522h0.849c0.489 0 0.733 0.236 0.733 0.707 0 0.451-0.258 0.677-0.772 0.676h-0.289v1.106h-0.524l0.003-2.49zM23.95 14.586c0.052 0.006 0.104 0.002 0.154-0.012s0.095-0.036 0.134-0.066c0.049-0.066 0.078-0.148 0.078-0.238 0-0.015-0.001-0.030-0.002-0.045l0 0.002c0-0.009 0.001-0.019 0.001-0.029 0-0.070-0.009-0.138-0.027-0.203l0.001 0.005c-0.008-0.026-0.022-0.049-0.039-0.068l0 0c-0.018-0.020-0.040-0.037-0.065-0.050l-0.001-0.001c-0.061-0.026-0.131-0.040-0.206-0.040-0.010 0-0.020 0-0.030 0.001l0.001-0h-0.203v0.744h0.203zM25.563 13.522h0.562l0.577 2.489h-0.488l-0.114-0.574h-0.502l-0.118 0.574h-0.495l0.577-2.49zM26.044 15.149l-0.196-1.045-0.196 1.045h0.392zM27.169 13.522h0.367l0.702 1.42v-1.42h0.435v2.489h-0.349l-0.706-1.482v1.482h-0.449l0.001-2.489zM29.69 15.062l-0.583-1.537h0.491l0.356 0.987 0.334-0.987h0.481l-0.576 1.537v0.949h-0.503v-0.949zM17.279 17.1v0.13h-0.428v1.011h-0.179v-1.011h-0.43v-0.13h1.036zM18.619 18.241h-0.138c-0.001 0-0.002 0-0.004 0-0.013 0-0.025-0.004-0.035-0.011l0 0c-0.010-0.006-0.018-0.015-0.023-0.026l-0-0-0.124-0.271h-0.593l-0.123 0.271c-0.004 0.012-0.011 0.022-0.019 0.031h-0c-0.010 0.007-0.022 0.011-0.036 0.011-0.001 0-0.002-0-0.003-0h-0.138l0.524-1.142h0.182l0.53 1.137zM17.752 17.818h0.494l-0.209-0.465c-0.013-0.029-0.027-0.065-0.038-0.102l-0.001-0.006c-0.007 0.022-0.014 0.042-0.020 0.061l-0.019 0.048-0.207 0.464zM19.522 18.129c0.033 0.002 0.066 0.002 0.098 0 0.028-0.002 0.056-0.007 0.084-0.014 0.026-0.006 0.051-0.012 0.075-0.021 0.023-0.008 0.046-0.018 0.070-0.028v-0.257h-0.21c-0.001 0-0.002 0-0.003 0-0.005 0-0.009-0.001-0.013-0.002l0 0c-0.005-0.002-0.009-0.004-0.013-0.007l0 0c-0.003-0.002-0.006-0.006-0.008-0.009l-0-0c-0.002-0.003-0.003-0.007-0.003-0.010 0-0 0-0.001 0-0.001v0-0.088h0.406v0.438c-0.064 0.040-0.137 0.072-0.215 0.092l-0.006 0.001c-0.043 0.011-0.087 0.018-0.131 0.023-0.046 0.005-0.099 0.007-0.153 0.007-0 0-0 0-0 0v0c-0.002 0-0.004 0-0.006 0-0.092 0-0.181-0.016-0.264-0.044l0.006 0.002c-0.081-0.028-0.15-0.068-0.21-0.12l0.001 0.001c-0.056-0.050-0.102-0.11-0.134-0.178l-0.001-0.003c-0.030-0.067-0.048-0.146-0.048-0.229 0-0.003 0-0.005 0-0.008v0c-0-0.002-0-0.005-0-0.007 0-0.084 0.017-0.163 0.049-0.235l-0.001 0.004c0.030-0.068 0.076-0.129 0.135-0.181s0.131-0.092 0.209-0.118c0.090-0.029 0.185-0.043 0.281-0.042 0.049 0 0.098 0.003 0.146 0.010 0.043 0.006 0.084 0.016 0.125 0.029 0.037 0.012 0.072 0.027 0.105 0.045s0.063 0.038 0.091 0.060l-0.050 0.071c-0.004 0.007-0.010 0.012-0.017 0.015l-0 0c-0.007 0.004-0.015 0.006-0.024 0.006h-0c-0.012-0-0.023-0.004-0.033-0.009l0 0c-0.021-0.010-0.038-0.019-0.054-0.029l0.003 0.002c-0.020-0.011-0.043-0.021-0.067-0.030l-0.003-0.001c-0.027-0.010-0.059-0.018-0.092-0.025l-0.004-0.001c-0.038-0.006-0.081-0.010-0.126-0.010-0.002 0-0.005 0-0.007 0h0c-0.002-0-0.004-0-0.006-0-0.070 0-0.137 0.012-0.2 0.033l0.004-0.001c-0.060 0.021-0.111 0.052-0.154 0.091l0-0c-0.044 0.041-0.077 0.089-0.098 0.142-0.022 0.057-0.035 0.122-0.035 0.19s0.013 0.134 0.036 0.194l-0.001-0.004c0.023 0.054 0.059 0.102 0.105 0.144 0.043 0.039 0.095 0.070 0.153 0.090 0.067 0.020 0.137 0.027 0.207 0.022zM21.192 18.111h0.572v0.13h-0.747v-1.142h0.179l-0.004 1.011zM22.359 18.241h-0.179v-1.142h0.179v1.142zM23.026 17.105c0.011 0.005 0.020 0.012 0.027 0.021l0 0 0.766 0.861c-0-0.006-0.001-0.013-0.001-0.020s0-0.014 0.001-0.021l-0 0.001v-0.851h0.156v1.146h-0.090c-0.002 0-0.004 0-0.006 0-0.012 0-0.023-0.002-0.034-0.007l0.001 0c-0.011-0.006-0.020-0.013-0.028-0.021l-0-0-0.765-0.86v0.888h-0.15v-1.142h0.093c0.010 0 0.020 0.002 0.030 0.005zM25.294 17.1v0.126h-0.635v0.377h0.514v0.121h-0.514v0.39h0.635v0.126h-0.819v-1.139h0.819zM6.522 10.049l7.954 1.949v6.829l-7.954-1.948v-6.831zM6.011 9.467v7.744l8.974 2.199v-7.743l-8.974-2.2z"></path>
<path d="M10.821 23.005l-8.975-2.201v-7.743l8.975 2.2v7.745z"></path>
<path d="M6.16 9.961l7.851 1.924-3.338 2.882-7.852-1.926 3.34-2.881zM6.011 9.467l-4.165 3.594 8.975 2.2 4.164-3.594-8.974-2.2zM11.326 22.569l3.659-3.158-3.659-0.898v4.056z"></path>
</symbol>
<symbol id="icon-Logo-2" viewBox="0 0 32 32">
<path d="M8.244 21.038c0.075 0.084 0.116 0.19 0.114 0.298 0.004 0.070-0.010 0.141-0.041 0.206s-0.077 0.123-0.136 0.17c-0.129 0.087-0.287 0.139-0.458 0.139-0.019 0-0.038-0.001-0.056-0.002l0.003 0h-0.9v-1.887h0.882c0.016-0.001 0.034-0.002 0.052-0.002 0.162 0 0.313 0.047 0.44 0.129l-0.003-0.002c0.057 0.043 0.102 0.097 0.132 0.158s0.043 0.128 0.039 0.195c0.005 0.104-0.031 0.206-0.102 0.288-0.069 0.075-0.162 0.127-0.265 0.147l-0.003 0c0.12 0.020 0.227 0.077 0.304 0.161zM7.188 20.753h0.377c0.086 0.006 0.17-0.016 0.239-0.062 0.027-0.022 0.049-0.050 0.064-0.082l0.001-0.001c0.011-0.024 0.017-0.052 0.017-0.082 0-0.007-0-0.013-0.001-0.020l0 0.001c0-0.005 0.001-0.010 0.001-0.016 0-0.030-0.006-0.059-0.018-0.085l0.001 0.001c-0.015-0.033-0.036-0.062-0.062-0.084l-0-0c-0.061-0.040-0.136-0.065-0.216-0.065-0.011 0-0.021 0-0.032 0.001l0.001-0h-0.371v0.495zM7.841 21.477c0.029-0.023 0.053-0.052 0.069-0.085l0.001-0.001c0.013-0.027 0.020-0.058 0.020-0.091 0-0.005-0-0.010-0.001-0.015l0 0.001c0-0.004 0-0.009 0-0.013 0-0.034-0.008-0.066-0.022-0.094l0.001 0.001c-0.017-0.035-0.041-0.064-0.070-0.087l-0.001-0c-0.065-0.043-0.145-0.069-0.231-0.069-0.009 0-0.018 0-0.026 0.001l0.001-0h-0.395v0.519h0.4c0.090 0.005 0.179-0.018 0.253-0.066zM10.046 21.849l-0.49-0.738h-0.185v0.737h-0.422v-1.887h0.798c0.017-0.001 0.037-0.002 0.058-0.002 0.187 0 0.361 0.061 0.501 0.164l-0.002-0.002c0.112 0.102 0.179 0.238 0.19 0.381s-0.035 0.285-0.13 0.4c-0.098 0.102-0.233 0.17-0.381 0.192l0.522 0.754h-0.458zM9.371 20.854h0.345c0.24 0 0.359-0.095 0.359-0.286 0-0.005 0-0.010 0-0.015 0-0.036-0.007-0.070-0.020-0.1l0.001 0.002c-0.016-0.038-0.040-0.071-0.068-0.098l-0-0c-0.066-0.049-0.148-0.078-0.238-0.078-0.012 0-0.024 0-0.035 0.002l0.002-0h-0.349l0.004 0.574zM12.352 21.469h-0.841l-0.148 0.38h-0.442l0.772-1.866h0.478l0.769 1.866h-0.442l-0.145-0.38zM12.239 21.184l-0.307-0.797-0.307 0.796h0.614zM15.238 21.849h-0.418l-0.939-1.283v1.283h-0.418v-1.887h0.418l0.939 1.29v-1.29h0.419v1.887zM17.628 21.397c-0.091 0.145-0.22 0.26-0.373 0.331l-0.005 0.002c-0.182 0.083-0.385 0.124-0.589 0.119h-0.746v-1.887h0.746c0.010-0 0.022-0 0.035-0 0.2 0 0.391 0.043 0.563 0.12l-0.009-0.003c0.16 0.073 0.292 0.188 0.379 0.329 0.086 0.154 0.131 0.323 0.131 0.495-0 0.182-0.049 0.352-0.134 0.5l0.003-0.005zM17.149 21.352c0.113-0.116 0.184-0.275 0.185-0.45v-0c-0.001-0.175-0.072-0.334-0.185-0.45l0 0c-0.13-0.101-0.296-0.162-0.476-0.162-0.017 0-0.034 0.001-0.050 0.002l0.002-0h-0.291v1.222h0.291c0.015 0.001 0.031 0.002 0.049 0.002 0.18 0 0.346-0.061 0.478-0.163l-0.002 0.001zM12.614 9.467s5.405 1.837 5.29 4.495v4.497s-5.401-1.838-5.289-4.497l-0.002-4.495zM22.72 17.406c1.021-0.633 2.202-1.025 3.434-1.139v-1.408c-1.42 0.493-2.625 1.386-3.434 2.547z"></path>
<path d="M22.106 17.83c0.835-1.515 2.284-2.683 4.047-3.266v-4.056s-7.698 2.617-7.535 6.403v6.402s0.343-0.117 0.883-0.337c0-0.205 0-0.411 0.025-0.618 0.159-1.758 1.087-3.386 2.58-4.528z"></path>
<path d="M21.374 20.208c0.041-0.444 0.131-0.883 0.27-1.311-0.93 0.986-1.493 2.209-1.61 3.498-0.011 0.122-0.017 0.243-0.020 0.369 0.645-0.277 1.131-0.512 1.608-0.763l-0.128 0.061c-0.092-0.393-0.145-0.845-0.145-1.308 0-0.192 0.009-0.382 0.027-0.569l-0.002 0.024zM21.68 20.231c-0.015 0.155-0.024 0.336-0.024 0.519 0 0.411 0.043 0.811 0.126 1.197l-0.007-0.037c2.103-1.133 4.466-2.883 4.375-4.999v-0.185c-1.502 0.152-2.908 0.743-4.002 1.683-0.241 0.532-0.408 1.15-0.467 1.799l-0.002 0.023z"></path>
</symbol>
<symbol id="icon-group-2" viewBox="0 0 32 32">
<path d="M4.982 12.959h-0.001c-0.909 0-1.646 0.664-1.646 1.483v0.001c0 0.819 0.737 1.483 1.646 1.483h0.001c0.909 0 1.646-0.664 1.646-1.483v-0.001c0-0.819-0.737-1.483-1.646-1.483zM17.128 12.485c-0.002-1.138-0.505-2.229-1.397-3.034s-2.102-1.258-3.365-1.261c-1.262 0.002-2.473 0.455-3.366 1.26s-1.396 1.896-1.398 3.034v6.276s9.525-0.956 9.526-6.275v-0.001zM0 20.821c0.002 0.792 0.352 1.551 0.973 2.111s1.463 0.876 2.341 0.878c0.878-0.002 1.72-0.318 2.341-0.878s0.971-1.318 0.973-2.11v-4.366s-6.628 0.666-6.628 4.365zM3.314 21.603c-0.171 0-0.339-0.046-0.482-0.132-0.139-0.083-0.249-0.203-0.318-0.346l-0.002-0.005c-0.042-0.088-0.066-0.191-0.066-0.299 0-0.054 0.006-0.107 0.017-0.157l-0.001 0.005c0.038-0.161 0.122-0.298 0.237-0.4l0.001-0.001c0.121-0.108 0.272-0.183 0.439-0.213l0.005-0.001c0.168-0.030 0.343-0.015 0.501 0.045s0.294 0.159 0.389 0.288 0.146 0.28 0.146 0.435c0 0.103-0.022 0.205-0.065 0.301s-0.107 0.182-0.188 0.255c-0.079 0.072-0.173 0.129-0.276 0.168l-0.006 0.002c-0.099 0.038-0.213 0.060-0.332 0.060-0 0-0.001 0-0.001 0h0v-0.003zM9.375 20.196v1.625h-0.335v-1.625h0.335zM10.022 20.89v0.261h-0.739v-0.261h0.739zM10.1 20.196v0.262h-0.816v-0.262h0.817zM11.629 20.971v0.077c0 0.124-0.017 0.235-0.050 0.333-0.032 0.097-0.080 0.181-0.143 0.252l0.001-0.001c-0.061 0.069-0.134 0.121-0.219 0.157-0.080 0.035-0.173 0.055-0.27 0.055-0.004 0-0.007-0-0.011-0h0.001c-0.102 0-0.195-0.018-0.28-0.054-0.086-0.038-0.159-0.091-0.218-0.157l-0.001-0.001c-0.062-0.071-0.111-0.154-0.142-0.246l-0.002-0.005c-0.032-0.095-0.050-0.204-0.050-0.318 0-0.005 0-0.010 0-0.016v0.001-0.077c0-0.124 0.017-0.235 0.050-0.333 0.032-0.097 0.081-0.18 0.143-0.252l-0.001 0.001c0.062-0.069 0.135-0.122 0.219-0.158 0.085-0.037 0.178-0.055 0.28-0.055 0.103 0 0.196 0.018 0.28 0.055s0.158 0.089 0.219 0.158c0.062 0.069 0.109 0.153 0.143 0.251 0.034 0.097 0.051 0.208 0.051 0.332zM11.291 21.048v-0.079c0-0.086-0.008-0.162-0.023-0.227-0.014-0.063-0.038-0.118-0.070-0.167l0.001 0.002c-0.028-0.042-0.066-0.076-0.11-0.1l-0.002-0.001c-0.042-0.022-0.092-0.034-0.144-0.034-0.002 0-0.005 0-0.007 0h0c-0.056 0-0.107 0.011-0.15 0.034-0.045 0.024-0.082 0.058-0.11 0.099l-0.001 0.001c-0.031 0.047-0.054 0.103-0.068 0.162l-0.001 0.003c-0.015 0.064-0.023 0.138-0.023 0.213 0 0.005 0 0.010 0 0.015v-0.001 0.079c0 0.086 0.008 0.162 0.023 0.228s0.039 0.121 0.069 0.166c0.030 0.045 0.068 0.078 0.112 0.101s0.094 0.035 0.15 0.035c0.057 0 0.107-0.011 0.151-0.034 0.045-0.025 0.083-0.059 0.11-0.101l0.001-0.001c0.030-0.046 0.053-0.101 0.068-0.166 0.015-0.064 0.023-0.138 0.023-0.214 0-0.005-0-0.010-0-0.014v0.001zM12.716 21.396c0-0.001 0-0.002 0-0.004 0-0.027-0.005-0.052-0.014-0.076l0.001 0.001c-0.010-0.026-0.026-0.048-0.047-0.065l-0-0c-0.028-0.023-0.060-0.043-0.095-0.058l-0.003-0.001c-0.043-0.020-0.097-0.041-0.152-0.058l-0.010-0.003c-0.086-0.028-0.155-0.055-0.222-0.086l0.013 0.005c-0.066-0.030-0.124-0.065-0.176-0.105l0.002 0.001c-0.048-0.038-0.087-0.085-0.117-0.137l-0.001-0.002c-0.027-0.051-0.043-0.112-0.043-0.176 0-0.003 0-0.005 0-0.008v0c-0-0.002-0-0.003-0-0.005 0-0.065 0.017-0.127 0.046-0.181l-0.001 0.002c0.030-0.056 0.072-0.104 0.125-0.143 0.053-0.040 0.117-0.071 0.19-0.093 0.074-0.021 0.154-0.032 0.242-0.032 0.12 0 0.224 0.022 0.314 0.065s0.158 0.102 0.208 0.178c0.050 0.075 0.075 0.161 0.075 0.258h-0.333c0-0.002 0-0.004 0-0.006 0-0.044-0.011-0.085-0.031-0.12l0.001 0.001c-0.020-0.037-0.051-0.067-0.088-0.086l-0.001-0.001c-0.040-0.020-0.088-0.031-0.138-0.031-0.004 0-0.008 0-0.012 0l0.001-0c-0.003-0-0.007-0-0.011-0-0.048 0-0.094 0.010-0.136 0.028l0.002-0.001c-0.036 0.015-0.066 0.039-0.087 0.070l-0 0.001c-0.018 0.027-0.029 0.060-0.029 0.095 0 0.001 0 0.002 0 0.003v-0c0 0.027 0.006 0.053 0.020 0.075 0.017 0.025 0.038 0.046 0.062 0.062l0.001 0c0.027 0.019 0.061 0.038 0.101 0.055s0.087 0.034 0.139 0.050c0.089 0.027 0.166 0.057 0.234 0.090s0.124 0.071 0.17 0.113c0.046 0.042 0.080 0.089 0.103 0.142s0.034 0.113 0.034 0.18c0 0.005 0 0.010 0 0.016 0 0.129-0.063 0.244-0.16 0.315l-0.001 0.001c-0.052 0.038-0.114 0.068-0.186 0.088s-0.153 0.030-0.242 0.030c-0.080 0-0.16-0.011-0.238-0.032-0.081-0.022-0.152-0.056-0.216-0.099l0.003 0.002c-0.063-0.043-0.114-0.098-0.15-0.163l-0.001-0.002c-0.038-0.067-0.057-0.146-0.057-0.238h0.336c0 0.051 0.008 0.093 0.023 0.128s0.037 0.063 0.065 0.084l0.001 0c0.029 0.021 0.064 0.038 0.101 0.046l0.002 0c0.040 0.010 0.084 0.014 0.131 0.014 0.004 0 0.008 0 0.012 0 0.047 0 0.092-0.009 0.133-0.025l-0.002 0.001c0.066-0.027 0.112-0.090 0.112-0.164 0-0.001 0-0.002-0-0.003v0zM14.005 20.196v1.625h-0.334v-1.625h0.334zM14.506 20.196v0.262h-1.326v-0.262h1.326zM15.787 21.56v0.261h-0.865v-0.261h0.865zM15.031 20.196v1.625h-0.335v-1.625h0.335zM15.674 20.858v0.254h-0.752v-0.254h0.752zM15.786 20.196v0.262h-0.864v-0.262h0.864zM15.982 20.196h0.606c0.125 0 0.231 0.019 0.32 0.056 0.090 0.037 0.159 0.093 0.208 0.165s0.072 0.163 0.072 0.269c0 0.087-0.014 0.162-0.045 0.224s-0.071 0.114-0.123 0.154l-0.001 0.001c-0.053 0.041-0.115 0.074-0.182 0.097l-0.005 0.001-0.106 0.056h-0.527l-0.002-0.261h0.392c0.003 0 0.007 0 0.011 0 0.049 0 0.096-0.012 0.137-0.032l-0.002 0.001c0.038-0.020 0.067-0.050 0.087-0.086l0.001-0.001c0.019-0.036 0.030-0.078 0.030-0.123 0-0.002-0-0.004-0-0.006v0c0-0.002 0-0.005 0-0.007 0-0.046-0.011-0.090-0.030-0.129l0.001 0.002c-0.020-0.038-0.050-0.068-0.087-0.086l-0.001-0c-0.040-0.019-0.088-0.031-0.138-0.031-0.004 0-0.007 0-0.011 0h-0.271v1.363h-0.334v-1.625zM16.89 21.821l-0.37-0.725 0.354-0.002 0.375 0.711v0.015h-0.358zM18.648 21.242h-0.414v-0.261h0.414c0.004 0 0.009 0 0.013 0 0.052 0 0.101-0.012 0.145-0.032l-0.002 0.001c0.038-0.020 0.069-0.051 0.087-0.088l0.001-0.001c0.017-0.039 0.028-0.084 0.028-0.132s-0.010-0.093-0.028-0.134l0.001 0.002c-0.019-0.042-0.049-0.077-0.087-0.1l-0.001-0.001c-0.041-0.024-0.091-0.038-0.144-0.038-0.004 0-0.009 0-0.013 0l0.001-0h-0.298v1.363h-0.334v-1.625h0.632c0.128 0 0.236 0.023 0.328 0.069 0.091 0.045 0.161 0.108 0.21 0.189s0.072 0.172 0.072 0.275c0 0.105-0.024 0.196-0.072 0.272s-0.118 0.136-0.21 0.178c-0.091 0.042-0.2 0.062-0.328 0.062zM20.579 21.56v0.261h-0.865v-0.261h0.865zM19.824 20.196v1.625h-0.335v-1.625h0.335zM20.466 20.858v0.254h-0.752v-0.254h0.752zM20.578 20.196v0.262h-0.864v-0.262h0.864zM21.523 20.196v1.625h-0.333v-1.625h0.334zM22.023 20.196v0.262h-1.326v-0.262h1.326zM23.304 21.56v0.261h-0.865v-0.261h0.865zM22.549 20.196v1.625h-0.335v-1.625h0.335zM23.192 20.858v0.254h-0.752v-0.254h0.752zM23.303 20.196v0.262h-0.864v-0.262h0.864zM23.5 20.196h0.606c0.125 0 0.231 0.019 0.321 0.056s0.159 0.093 0.208 0.165c0.048 0.073 0.072 0.163 0.072 0.269 0 0.087-0.015 0.162-0.045 0.224s-0.071 0.114-0.123 0.154l-0.001 0.001c-0.053 0.041-0.115 0.074-0.182 0.097l-0.005 0.001-0.106 0.056h-0.527l-0.002-0.261h0.392c0.003 0 0.007 0 0.011 0 0.049 0 0.096-0.012 0.137-0.032l-0.002 0.001c0.038-0.020 0.067-0.050 0.087-0.086l0.001-0.001c0.019-0.036 0.031-0.079 0.031-0.124 0-0.002-0-0.004-0-0.006v0c0-0.002 0-0.004 0-0.007 0-0.047-0.011-0.091-0.030-0.13l0.001 0.002c-0.020-0.038-0.050-0.068-0.087-0.086l-0.001-0c-0.040-0.019-0.088-0.031-0.138-0.031-0.004 0-0.007 0-0.011 0h-0.27v1.363h-0.335v-1.625zM24.408 21.821l-0.371-0.725 0.354-0.002 0.375 0.711v0.015h-0.358zM25.81 21.396c0-0.001 0-0.002 0-0.002 0-0.027-0.005-0.053-0.014-0.077l0 0.001c-0.010-0.026-0.026-0.048-0.047-0.065l-0-0c-0.028-0.023-0.060-0.043-0.095-0.058l-0.003-0.001c-0.043-0.020-0.097-0.041-0.152-0.058l-0.010-0.003c-0.086-0.028-0.155-0.055-0.223-0.086l0.013 0.005c-0.066-0.030-0.124-0.065-0.176-0.105l0.002 0.001c-0.048-0.038-0.087-0.085-0.117-0.137l-0.001-0.002c-0.027-0.051-0.043-0.112-0.043-0.176 0-0.003 0-0.005 0-0.008v0c-0-0.002-0-0.003-0-0.005 0-0.065 0.017-0.127 0.046-0.181l-0.001 0.002c0.030-0.056 0.072-0.104 0.125-0.143 0.053-0.040 0.117-0.071 0.19-0.093 0.074-0.021 0.154-0.032 0.242-0.032 0.12 0 0.224 0.022 0.314 0.065s0.158 0.102 0.208 0.178c0.050 0.075 0.075 0.161 0.075 0.258h-0.333c0-0.002 0-0.004 0-0.006 0-0.044-0.011-0.085-0.031-0.12l0.001 0.001c-0.020-0.037-0.051-0.067-0.088-0.086l-0.001-0.001c-0.040-0.020-0.088-0.031-0.138-0.031-0.004 0-0.008 0-0.012 0l0.001-0c-0.003-0-0.007-0-0.011-0-0.048 0-0.094 0.010-0.136 0.028l0.002-0.001c-0.036 0.015-0.066 0.039-0.087 0.070l-0 0.001c-0.018 0.027-0.029 0.060-0.029 0.096 0 0.001 0 0.002 0 0.003v-0c0 0.027 0.006 0.053 0.020 0.075 0.017 0.025 0.038 0.046 0.062 0.062l0.001 0c0.027 0.019 0.061 0.038 0.101 0.055s0.087 0.034 0.139 0.050c0.089 0.027 0.166 0.057 0.234 0.090s0.124 0.071 0.17 0.113c0.046 0.042 0.080 0.089 0.103 0.142s0.034 0.113 0.034 0.18c0 0.005 0 0.010 0 0.016 0 0.129-0.063 0.244-0.16 0.315l-0.001 0.001c-0.052 0.038-0.114 0.068-0.186 0.088s-0.153 0.030-0.242 0.030c-0.080 0-0.16-0.011-0.238-0.032-0.081-0.022-0.152-0.056-0.216-0.099l0.003 0.002c-0.063-0.043-0.114-0.098-0.151-0.163l-0.001-0.002c-0.038-0.067-0.057-0.146-0.057-0.238h0.336c0 0.051 0.008 0.093 0.023 0.128s0.037 0.063 0.065 0.084l0 0c0.029 0.021 0.064 0.038 0.101 0.046l0.002 0c0.040 0.010 0.084 0.014 0.132 0.014 0.004 0 0.008 0 0.012 0 0.047 0 0.092-0.009 0.133-0.025l-0.002 0.001c0.066-0.027 0.112-0.090 0.112-0.164 0-0.001 0-0.002-0-0.003v0z"></path>
</symbol>
<symbol id="icon-group-1" viewBox="0 0 32 32">
<path d="M4.953 30.344c0.012 0 0.023 0.003 0.033 0.007 0.011 0.004 0.021 0.010 0.029 0.017l-0-0 0.16 0.151c-0.126 0.122-0.276 0.219-0.442 0.283l-0.009 0.003c-0.204 0.073-0.422 0.108-0.641 0.103-0.010 0-0.022 0-0.034 0-0.204 0-0.4-0.035-0.581-0.1l0.012 0.004c-0.175-0.063-0.326-0.155-0.454-0.271l0.001 0.001c-0.124-0.115-0.223-0.255-0.29-0.411l-0.003-0.008c-0.065-0.154-0.103-0.333-0.103-0.521 0-0.005 0-0.011 0-0.016v0.001c-0-0.005-0-0.011-0-0.017 0-0.189 0.041-0.368 0.114-0.529l-0.003 0.008c0.070-0.156 0.176-0.298 0.311-0.418 0.136-0.117 0.296-0.21 0.471-0.27l0.010-0.003c0.179-0.061 0.385-0.096 0.6-0.096 0.007 0 0.014 0 0.022 0h-0.001c0.196-0.004 0.393 0.026 0.576 0.087 0.159 0.060 0.305 0.141 0.432 0.242l-0.135 0.161c-0.010 0.012-0.021 0.021-0.034 0.029l-0.001 0c-0.013 0.008-0.030 0.013-0.047 0.013-0.003 0-0.005-0-0.008-0l0 0c-0.022-0.001-0.041-0.008-0.059-0.018l0.001 0-0.073-0.043-0.1-0.055c-0.092-0.044-0.199-0.078-0.31-0.096l-0.007-0.001c-0.066-0.011-0.142-0.017-0.219-0.017-0.007 0-0.014 0-0.021 0h0.001c-0.005-0-0.010-0-0.016-0-0.154 0-0.302 0.026-0.439 0.075l0.009-0.003c-0.135 0.047-0.251 0.115-0.35 0.203l0.001-0.001c-0.1 0.094-0.177 0.204-0.227 0.323-0.052 0.121-0.082 0.263-0.082 0.411 0 0.005 0 0.010 0 0.015v-0.001c-0 0.005-0 0.011-0 0.016 0 0.15 0.030 0.293 0.085 0.423l-0.003-0.007c0.103 0.245 0.303 0.433 0.55 0.518l0.006 0.002c0.131 0.047 0.271 0.070 0.413 0.068 0.082 0.001 0.164-0.004 0.245-0.014 0.204-0.020 0.386-0.101 0.532-0.222l-0.002 0.001c0.021-0.017 0.047-0.027 0.076-0.028h0zM9.59 29.585c0.003 0.182-0.034 0.364-0.108 0.534-0.072 0.164-0.174 0.302-0.301 0.413l-0.001 0.001c-0.134 0.118-0.295 0.211-0.474 0.271-0.182 0.061-0.392 0.096-0.61 0.096s-0.428-0.035-0.624-0.1l0.014 0.004c-0.182-0.063-0.34-0.156-0.474-0.274l0.002 0.001c-0.128-0.114-0.231-0.253-0.302-0.41l-0.003-0.008c-0.069-0.158-0.109-0.341-0.109-0.535s0.040-0.377 0.112-0.543l-0.003 0.009c0.068-0.156 0.172-0.298 0.305-0.42 0.135-0.114 0.295-0.204 0.472-0.262 0.393-0.131 0.828-0.131 1.22 0 0.178 0.062 0.34 0.154 0.473 0.273 0.253 0.226 0.412 0.553 0.412 0.918 0 0.011-0 0.022-0 0.034l0-0.002zM9.168 29.585c0.004-0.145-0.022-0.291-0.076-0.429-0.098-0.249-0.298-0.439-0.548-0.521l-0.006-0.002c-0.132-0.045-0.285-0.070-0.444-0.070s-0.311 0.026-0.454 0.073l0.010-0.003c-0.132 0.046-0.245 0.115-0.34 0.203l0.001-0.001c-0.093 0.087-0.167 0.194-0.215 0.314l-0.002 0.006c-0.102 0.28-0.102 0.579 0 0.858 0.045 0.119 0.119 0.228 0.217 0.321 0.095 0.087 0.211 0.156 0.34 0.201 0.286 0.092 0.601 0.092 0.887 0 0.129-0.044 0.245-0.113 0.339-0.201 0.097-0.093 0.169-0.203 0.215-0.321 0.054-0.138 0.080-0.284 0.076-0.429zM12.754 30.036l0.041 0.096c0.016-0.034 0.031-0.065 0.047-0.096 0.015-0.033 0.033-0.064 0.052-0.095l1.025-1.593c0.020-0.028 0.039-0.045 0.058-0.051s0.044-0.008 0.069-0.008c0.006 0 0.011 0 0.017 0l-0.001-0h0.303v2.591h-0.359v-1.985c-0.001-0.013-0.001-0.029-0.001-0.045s0.001-0.031 0.002-0.047l-0 0.002-1.032 1.615c-0.014 0.025-0.035 0.045-0.060 0.059l-0.001 0c-0.025 0.014-0.055 0.022-0.087 0.022-0 0-0.001 0-0.001 0h-0.058c-0.001 0-0.002 0-0.002 0-0.032 0-0.061-0.008-0.087-0.022l0.001 0c-0.025-0.013-0.046-0.033-0.059-0.057l-0-0.001-1.062-1.626v2.080h-0.348v-2.586h0.303c0.004-0 0.009-0 0.013-0 0.025 0 0.050 0.003 0.073 0.009l-0.002-0c0.024 0.010 0.043 0.027 0.056 0.049l0 0.001 1.047 1.595c0.021 0.029 0.039 0.061 0.053 0.093zM16.615 29.907v0.97h-0.401v-2.588h0.895c0.169-0.003 0.338 0.016 0.5 0.057 0.13 0.031 0.25 0.086 0.353 0.161 0.086 0.067 0.154 0.152 0.199 0.25l0.002 0.004c0.047 0.105 0.071 0.217 0.068 0.331 0 0.003 0 0.008 0 0.012 0 0.236-0.114 0.446-0.289 0.577l-0.002 0.001c-0.101 0.076-0.22 0.135-0.349 0.17l-0.007 0.002c-0.156 0.042-0.319 0.063-0.483 0.060l-0.486-0.007zM16.615 29.629h0.486c0.105 0.001 0.211-0.012 0.311-0.040 0.086-0.025 0.161-0.063 0.227-0.113l-0.002 0.001c0.113-0.090 0.185-0.228 0.185-0.383 0-0.002 0-0.004-0-0.006v0c0.001-0.008 0.001-0.017 0.001-0.026 0-0.067-0.015-0.131-0.043-0.187l0.001 0.003c-0.034-0.070-0.081-0.13-0.139-0.176l-0.001-0.001c-0.134-0.089-0.299-0.141-0.476-0.141-0.022 0-0.044 0.001-0.066 0.002l0.003-0h-0.486v1.067zM22.011 30.881h-0.318c-0.002 0-0.004 0-0.006 0-0.031 0-0.059-0.009-0.083-0.024l0.001 0c-0.022-0.015-0.040-0.035-0.052-0.059l-0-0.001-0.273-0.626h-1.372l-0.283 0.625c-0.011 0.024-0.029 0.044-0.050 0.058l-0 0c-0.024 0.016-0.054 0.026-0.086 0.026-0.002 0-0.003-0-0.005-0h-0.317l1.204-2.591h0.417l1.221 2.591zM20.023 29.919h1.132l-0.478-1.055c-0.032-0.067-0.063-0.148-0.088-0.232l-0.003-0.012-0.046 0.135c-0.015 0.041-0.030 0.079-0.044 0.109l-0.474 1.055zM23.745 28.301c0.024 0.011 0.044 0.027 0.059 0.046l0 0 1.757 1.953v-2.012h0.359v2.591h-0.201c-0.002 0-0.005 0-0.008 0-0.027 0-0.053-0.005-0.076-0.015l0.001 0c-0.025-0.013-0.046-0.029-0.064-0.049l-0-0-1.754-1.952c0.001 0.013 0.001 0.029 0.001 0.045s-0.001 0.031-0.002 0.047l0-0.002v1.926h-0.359v-2.591h0.212c0.025-0.001 0.049 0.003 0.073 0.012zM28.88 29.85v1.029h-0.401v-1.029l-1.11-1.561h0.359c0.003-0 0.006-0 0.009-0 0.029 0 0.055 0.008 0.078 0.022l-0.001-0c0.022 0.017 0.040 0.036 0.054 0.058l0.695 1.007c0.048 0.066 0.089 0.142 0.12 0.223l0.002 0.007 0.052-0.111c0.020-0.041 0.043-0.080 0.068-0.119l0.685-1.014c0.015-0.021 0.032-0.039 0.051-0.055l0-0c0.022-0.016 0.050-0.026 0.079-0.026 0.003 0 0.005 0 0.007 0h0.363l-1.113 1.568zM12.555 23.94c0.175 0.019 0.351 0.034 0.53 0.048 2.708-1.036 5-2.729 6.588-4.872s2.401-4.636 2.339-7.171l-2.985-2.551c0.607 2.699 0.323 5.489-0.82 8.058-1.143 2.568-3.1 4.815-5.652 6.487z"></path>
<path d="M11.489 23.821l0.080 0.014c2.727-1.667 4.807-3.994 5.969-6.681s1.355-5.61 0.552-8.392l-4.252-3.633c1.72 2.986 2.412 6.328 1.996 9.636s-1.923 6.45-4.345 9.056zM25.909 14.94c-0.722 2.785-2.477 5.297-5.003 7.164-0.688 0.515-1.467 1-2.286 1.416l-0.091 0.042c2.057-0.516 3.948-1.43 5.526-2.669s2.803-2.772 3.578-4.48l-1.724-1.472z"></path>
<path d="M25.233 14.529l-2.455-2.097c-0.047 2.392-0.843 4.729-2.305 6.769s-3.537 3.708-6.009 4.831h0.012c0.551 0 1.101-0.028 1.648-0.084 2.311-0.806 4.351-2.087 5.94-3.731s2.678-3.598 3.168-5.687zM11.844 3.597l-2.928-2.506c-2.618 0.865-4.871 2.384-6.461 4.361-1.592 1.976-2.448 4.316-2.455 6.715 0.009 2.649 1.054 5.222 2.967 7.308s4.585 3.567 7.594 4.21c2.687-2.796 4.26-6.252 4.49-9.865s-0.893-7.193-3.207-10.223zM32 14.144c-0.011-3.145-1.477-6.157-4.080-8.38-2.601-2.223-6.128-3.476-9.808-3.486-0.009-0-0.020-0-0.031-0-1.767 0-3.466 0.289-5.053 0.823l0.112-0.033 17.933 15.322c0.584-1.247 0.925-2.707 0.927-4.247v-0.001z"></path>
</symbol>
<symbol id="icon-group-3" viewBox="0 0 32 32">
<path d="M6.128 0l4.771 4.545-8.857-0.004v22.053h23.149v-8.432l4.766 4.541v-22.703h-23.83zM24.982 17.629l-13.528-12.889h13.528v12.889zM20.782 23.368h-15.076v-14.832h1.066v13.828h14.011v1.005zM8.712 30.681l-0.562-1.156h-0.464l0.814 1.529v0.891h0.42v-0.892l0.815-1.529h-0.462l-0.562 1.155zM10.783 29.525h0.099l0.914 2.42h-0.438l-0.196-0.566h-0.937l-0.195 0.566h-0.437l0.911-2.42h0.279zM10.339 31.048h0.709l-0.354-1.027-0.354 1.027zM13.264 30.646c-0.007-0.008-0.024-0.030-0.041-0.052l-0.011-0.015c-0.054-0.069-0.102-0.147-0.142-0.23l-0.003-0.008c-0.032-0.070-0.051-0.153-0.051-0.239 0-0 0-0 0-0.001v0c0-0.126 0.026-0.234 0.078-0.325s0.128-0.162 0.218-0.208l0.003-0.001c0.095-0.050 0.207-0.075 0.334-0.075 0.123 0 0.229 0.025 0.318 0.075 0.168 0.089 0.281 0.263 0.281 0.463 0 0.075-0.016 0.146-0.044 0.21l0.001-0.003c-0.030 0.067-0.069 0.124-0.116 0.173l0-0c-0.051 0.054-0.106 0.103-0.165 0.146l-0.003 0.002-0.168 0.123 0.479 0.565c0.066-0.126 0.104-0.276 0.104-0.435 0-0.006-0-0.012-0-0.018v0.001h0.346c0 0.118-0.012 0.229-0.035 0.334-0.032 0.152-0.094 0.287-0.179 0.403l0.002-0.003 0.354 0.419h-0.463l-0.141-0.165c-0.071 0.055-0.154 0.101-0.242 0.134l-0.007 0.002c-0.109 0.040-0.235 0.063-0.367 0.063-0.003 0-0.006 0-0.009-0h0c-0.161 0-0.3-0.029-0.417-0.088-0.113-0.055-0.206-0.138-0.271-0.24l-0.002-0.003c-0.060-0.098-0.095-0.216-0.095-0.343 0-0.004 0-0.008 0-0.012v0.001c0-0.099 0.020-0.185 0.061-0.259 0.042-0.076 0.097-0.146 0.168-0.21 0.066-0.059 0.14-0.118 0.225-0.178zM13.463 30.89l-0.050 0.036c-0.051 0.039-0.094 0.085-0.13 0.136l-0.001 0.002c-0.043 0.063-0.068 0.14-0.068 0.224 0 0.067 0.017 0.131 0.046 0.187l-0.001-0.002c0.032 0.058 0.078 0.105 0.133 0.137l0.002 0.001c0.060 0.032 0.13 0.051 0.205 0.051 0.004 0 0.009-0 0.013-0h-0.001c0.092 0 0.181-0.020 0.268-0.061 0.047-0.023 0.087-0.049 0.124-0.078l-0.002 0.001-0.538-0.633zM13.558 30.448l0.148-0.099c0.059-0.036 0.109-0.082 0.149-0.135l0.001-0.001c0.028-0.045 0.045-0.1 0.045-0.159 0-0.004-0-0.008-0-0.012l0 0.001c-0.004-0.13-0.111-0.233-0.241-0.233-0.005 0-0.010 0-0.014 0l0.001-0c-0.002-0-0.005-0-0.007-0-0.099 0-0.184 0.058-0.223 0.142l-0.001 0.002c-0.018 0.040-0.029 0.088-0.029 0.137 0 0.058 0.014 0.113 0.040 0.161l-0.001-0.002c0.025 0.052 0.060 0.107 0.105 0.165l0.027 0.035zM17.793 31.158h-0.416c-0.009 0.099-0.037 0.19-0.078 0.272l0.002-0.004c-0.038 0.072-0.096 0.128-0.166 0.164l-0.002 0.001c-0.077 0.036-0.167 0.057-0.262 0.057-0.009 0-0.018-0-0.027-0.001l0.001 0c-0.004 0-0.009 0-0.014 0-0.087 0-0.169-0.022-0.24-0.060l0.003 0.001c-0.071-0.040-0.13-0.096-0.172-0.163l-0.001-0.002c-0.045-0.073-0.079-0.158-0.098-0.249l-0.001-0.005c-0.020-0.096-0.032-0.207-0.032-0.32 0-0.004 0-0.009 0-0.013v0.001-0.204c0-0.129 0.012-0.243 0.035-0.343s0.060-0.185 0.108-0.254c0.045-0.066 0.105-0.119 0.176-0.155l0.003-0.001c0.069-0.034 0.15-0.053 0.236-0.053 0.005 0 0.009 0 0.014 0h-0.001c0.116 0 0.21 0.020 0.283 0.060s0.126 0.095 0.163 0.17c0.037 0.074 0.062 0.163 0.073 0.267h0.415c-0.015-0.16-0.063-0.307-0.139-0.435l0.003 0.005c-0.074-0.125-0.179-0.226-0.305-0.292l-0.004-0.002c-0.133-0.068-0.291-0.107-0.457-0.107-0.011 0-0.022 0-0.032 0l0.002-0c-0.152 0-0.289 0.027-0.411 0.080s-0.225 0.129-0.311 0.232c-0.087 0.101-0.155 0.221-0.197 0.353l-0.002 0.007c-0.046 0.14-0.068 0.298-0.068 0.472v0.202c0 0.174 0.022 0.331 0.067 0.472s0.111 0.261 0.196 0.361c0.085 0.099 0.188 0.175 0.307 0.229 0.12 0.053 0.255 0.080 0.404 0.080 0.195 0 0.361-0.035 0.497-0.106s0.242-0.168 0.317-0.291c0.075-0.124 0.12-0.266 0.133-0.424zM20.101 30.802v-0.133c0-0.182-0.024-0.347-0.073-0.49-0.045-0.143-0.115-0.267-0.206-0.373l0.001 0.001c-0.086-0.1-0.192-0.179-0.312-0.232l-0.006-0.002c-0.123-0.054-0.259-0.082-0.409-0.082-0.148 0-0.285 0.027-0.407 0.082-0.123 0.053-0.228 0.131-0.318 0.234-0.088 0.102-0.157 0.226-0.206 0.371-0.047 0.14-0.074 0.301-0.074 0.468 0 0.008 0 0.015 0 0.023v-0.001 0.133c0 0.183 0.024 0.347 0.074 0.492 0.048 0.143 0.119 0.266 0.21 0.372l-0.001-0.001c0.090 0.102 0.196 0.18 0.317 0.235 0.123 0.053 0.259 0.080 0.408 0.080s0.286-0.027 0.409-0.080c0.123-0.054 0.229-0.133 0.316-0.235 0.088-0.102 0.157-0.225 0.204-0.37s0.072-0.309 0.072-0.492zM19.685 30.666v0.136c0 0.136-0.014 0.255-0.040 0.36-0.023 0.1-0.062 0.189-0.115 0.267l0.002-0.003c-0.047 0.068-0.108 0.122-0.18 0.16l-0.003 0.001c-0.069 0.034-0.151 0.053-0.237 0.053-0.004 0-0.008-0-0.012-0h0.001c-0.003 0-0.007 0-0.011 0-0.086 0-0.167-0.020-0.239-0.055l0.003 0.001c-0.075-0.040-0.137-0.094-0.185-0.16l-0.001-0.002c-0.052-0.076-0.092-0.164-0.115-0.259l-0.001-0.005c-0.026-0.102-0.040-0.22-0.040-0.341 0-0.007 0-0.013 0-0.020v0.001-0.136c0-0.135 0.014-0.254 0.040-0.357s0.065-0.191 0.115-0.261c0.047-0.067 0.109-0.121 0.181-0.158l0.003-0.001c0.069-0.035 0.151-0.055 0.237-0.055 0.003 0 0.007 0 0.010 0h-0c0.092 0 0.174 0.018 0.248 0.054s0.134 0.088 0.184 0.16c0.051 0.069 0.090 0.157 0.115 0.261 0.027 0.104 0.040 0.223 0.040 0.357z"></path>
</symbol>
<symbol id="icon-linkedin" viewBox="0 0 32 32">
<path d="M31.992 32h0.008v-11.74c0-5.74-1.236-10.164-7.948-10.164-3.226 0-5.392 1.772-6.276 3.45h-0.094v-2.912h-6.362v21.366h6.628v-10.58c0-2.784 0.528-5.476 3.976-5.476 3.4 0 3.45 3.178 3.45 5.656v10.4h6.62zM0.528 10.636h6.634v21.364h-6.634v-21.364zM3.842 0c-2.12 0-3.84 1.72-3.84 3.84s1.72 3.88 3.84 3.88c2.122 0 3.844-1.76 3.844-3.88s-1.726-3.84-3.846-3.84z"></path>
</symbol>
<symbol id="icon-facebook" viewBox="0 0 32 32">
<path d="M21.33 5.314h2.92v-5.088c-1.238-0.144-2.672-0.226-4.125-0.226-0.046 0-0.092 0-0.138 0l0.007-0c-4.212 0-7.094 2.65-7.094 7.52v4.48h-4.65v5.688h4.648v14.312h5.698v-14.31h4.46l0.708-5.69h-5.17v-3.92c0.002-1.644 0.444-2.768 2.736-2.768z"></path>
</symbol>
<symbol id="icon-twitter" viewBox="0 0 32 32">
<path d="M32 6.078c-1.1 0.494-2.376 0.858-3.712 1.029l-0.068 0.007c1.36-0.817 2.381-2.078 2.873-3.58l0.013-0.046c-1.197 0.723-2.591 1.274-4.076 1.574l-0.084 0.014c-1.2-1.279-2.901-2.076-4.788-2.076-3.623 0-6.56 2.937-6.56 6.56v0c0 0.52 0.044 1.020 0.152 1.496-5.468-0.276-10.278-2.878-13.495-6.828l-0.027-0.034c-0.563 0.949-0.895 2.091-0.895 3.311 0 2.264 1.145 4.261 2.888 5.442l0.023 0.015c-1.092-0.030-2.109-0.325-2.997-0.823l0.033 0.017v0.072c0.004 3.164 2.237 5.806 5.213 6.438l0.043 0.008c-0.501 0.137-1.075 0.216-1.669 0.216-0.018 0-0.036-0-0.054-0l0.003 0c-0.031 0.001-0.067 0.001-0.103 0.001-0.403 0-0.796-0.041-1.176-0.119l0.037 0.006c0.873 2.624 3.273 4.496 6.121 4.57l0.009 0c-2.214 1.744-5.044 2.798-8.12 2.798-0.005 0-0.010 0-0.015 0h0.001c-0.538 0-1.054-0.024-1.57-0.090 2.826 1.846 6.287 2.944 10.004 2.944 0.021 0 0.042-0 0.063-0h-0.003c12.072 0 18.672-10 18.672-18.668 0-0.29-0.010-0.57-0.024-0.848 1.299-0.937 2.391-2.066 3.258-3.359l0.030-0.047z"></path>
</symbol>
<symbol id="icon-instagram" viewBox="0 0 32 32">
<path d="M31.968 9.408c-0.074-1.7-0.35-2.87-0.744-3.882-0.424-1.112-1.053-2.060-1.849-2.839l-0.001-0.001c-0.78-0.791-1.724-1.417-2.778-1.824l-0.054-0.018c-1.020-0.394-2.18-0.67-3.88-0.744-1.716-0.080-2.262-0.1-6.602-0.1-4.346 0-4.89 0.020-6.596 0.094-1.7 0.074-2.868 0.35-3.88 0.744-1.112 0.424-2.060 1.053-2.839 1.849l-0.001 0.001c-0.792 0.78-1.419 1.724-1.826 2.778l-0.018 0.054c-0.394 1.020-0.668 2.18-0.744 3.88-0.080 1.714-0.1 2.26-0.1 6.602 0 4.346 0.020 4.89 0.094 6.596 0.074 1.7 0.35 2.87 0.744 3.882 0.406 1.076 1.038 2.038 1.85 2.838 0.8 0.812 1.77 1.444 2.832 1.844 1.020 0.394 2.18 0.67 3.882 0.744 1.706 0.076 2.25 0.094 6.596 0.094 4.344 0 4.888-0.020 6.594-0.094 1.7-0.074 2.87-0.35 3.882-0.744 2.157-0.85 3.832-2.525 4.663-4.627l0.019-0.055c0.394-1.020 0.67-2.18 0.744-3.882 0.076-1.706 0.094-2.25 0.094-6.596 0-4.344-0.006-4.888-0.080-6.594zM29.088 22.472c-0.070 1.564-0.332 2.408-0.552 2.97-0.551 1.4-1.638 2.488-3.002 3.027l-0.036 0.013c-0.562 0.218-1.412 0.48-2.968 0.548-1.688 0.076-2.194 0.094-6.464 0.094s-4.782-0.020-6.464-0.094c-1.564-0.068-2.408-0.33-2.97-0.55-0.721-0.269-1.335-0.676-1.837-1.193l-0.001-0.001c-0.516-0.504-0.923-1.118-1.183-1.804l-0.011-0.034c-0.22-0.562-0.48-1.412-0.55-2.968-0.074-1.688-0.094-2.196-0.094-6.464 0-4.27 0.020-4.782 0.094-6.464 0.070-1.564 0.332-2.408 0.55-2.97 0.256-0.694 0.664-1.324 1.2-1.838 0.52-0.532 1.144-0.938 1.84-1.194 0.56-0.22 1.412-0.48 2.968-0.55 1.688-0.074 2.194-0.094 6.464-0.094 4.276 0 4.78 0.020 6.464 0.094 1.562 0.070 2.406 0.332 2.968 0.55 0.694 0.256 1.326 0.662 1.84 1.194 0.53 0.52 0.936 1.144 1.192 1.84 0.22 0.56 0.482 1.41 0.55 2.968 0.076 1.688 0.094 2.194 0.094 6.464s-0.018 4.77-0.092 6.456z"></path>
<path d="M16.060 7.782c-4.462 0.102-8.041 3.743-8.041 8.22s3.578 8.118 8.031 8.22l0.009 0c4.462-0.102 8.041-3.743 8.041-8.22s-3.578-8.118-8.031-8.22l-0.009-0zM16.060 21.336c-2.946 0-5.334-2.388-5.334-5.334s2.388-5.334 5.334-5.334v0c2.946 0 5.334 2.388 5.334 5.334s-2.388 5.334-5.334 5.334v0zM26.524 7.458c0 1.060-0.86 1.92-1.92 1.92s-1.92-0.86-1.92-1.92v0c0-1.060 0.86-1.92 1.92-1.92s1.92 0.86 1.92 1.92v0z"></path>
</symbol>
<symbol id="icon-astronaut" viewBox="0 0 32 32">
<path d="M31.974 4.524c-0.064-0.191-0.227-0.332-0.427-0.362l-0.003-0-1.911-0.278-0.855-1.731c-0.179-0.365-0.776-0.365-0.956 0l-0.855 1.731-1.91 0.278c-0.26 0.038-0.457 0.26-0.457 0.528 0 0.15 0.062 0.285 0.161 0.382l0 0 1.383 1.348-0.326 1.903c-0.034 0.2 0.048 0.402 0.212 0.521 0.166 0.12 0.383 0.136 0.562 0.040l1.709-0.899 1.709 0.899c0.072 0.038 0.157 0.060 0.247 0.060 0.295 0 0.534-0.239 0.534-0.534 0-0.031-0.003-0.062-0.008-0.092l0 0.003-0.326-1.903 1.383-1.348c0.099-0.097 0.161-0.233 0.161-0.382 0-0.059-0.009-0.115-0.027-0.168l0.001 0.004zM29.511 5.851c-0.125 0.122-0.183 0.299-0.153 0.472l0.191 1.114-1-0.526c-0.072-0.039-0.158-0.062-0.248-0.062s-0.177 0.023-0.251 0.063l0.003-0.001-1 0.526 0.191-1.114c0.005-0.027 0.008-0.058 0.008-0.090 0-0.15-0.062-0.285-0.161-0.382l-0-0-0.81-0.79 1.119-0.162c0.174-0.025 0.324-0.135 0.401-0.292l0.5-1.013 0.501 1.013c0.078 0.157 0.228 0.267 0.402 0.292l1.119 0.162-0.809 0.79zM26.134 20.522h-1.067v1.067h1.067v-1.067zM26.134 22.655h-1.067v1.067h1.067v-1.067z"></path>
<path d="M27.2 21.589h-1.067v1.067h1.067v-1.067zM25.067 21.589h-1.067v1.067h1.067v-1.067zM22.4 26.389h-1.067v1.067h1.067v-1.067zM22.4 28.523h-1.067v1.067h1.067v-1.067zM23.467 27.456h-1.067v1.067h1.067v-1.067z"></path>
<path d="M21.334 27.456h-1.067v1.067h1.067v-1.067zM16 24.256h-1.066v1.067h1.066v-1.067zM16 26.389h-1.066v1.067h1.066v-1.067zM17.067 25.323h-1.067v1.067h1.067v-1.067zM14.934 25.323h-1.067v1.067h1.067v-1.067zM5.867 6.122h-1.066v1.066h1.066v-1.066zM5.867 8.255h-1.066v1.067h1.066v-1.066zM6.933 7.189h-1.066v1.067h1.066v-1.067zM4.8 7.189h-1.067v1.067h1.067v-1.067z"></path>
<path d="M24.715 14.159c-0.28-0.377-0.699-0.636-1.179-0.704l-0.009-0.001c-0.076-0.012-0.164-0.018-0.254-0.018-0.411 0-0.789 0.139-1.090 0.374l0.004-0.003-1.252 0.96-1.898 1.417-1.358-0.541c2.421-1.086 4.114-3.508 4.114-6.32 0-3.823-3.122-6.933-6.961-6.933s-6.962 3.11-6.962 6.933c0 1.386 0.414 2.674 1.12 3.758l-2.769-0.024c-0.008 0-0.015 0.005-0.024 0.005-0.056 0.002-0.109 0.013-0.159 0.032l0.004-0.001c-0.013 0.005-0.026 0.008-0.038 0.014-0.006 0.002-0.013 0.003-0.019 0.007l-3.234 1.597-1.893 0.911c-0.024 0.011-0.045 0.023-0.064 0.036l0.001-0.001c-0.482 0.324-0.794 0.866-0.794 1.482 0 0.297 0.073 0.576 0.201 0.822l-0.005-0.010c0.22 0.429 0.595 0.745 1.056 0.89 0.161 0.053 0.345 0.083 0.537 0.083 0.308 0 0.598-0.078 0.851-0.216l-0.009 0.005 1.388-0.738 2.264-1.169 1.357-0.008-5.442 5.415c0 0.001-0.001 0.001-0.002 0.002l-1.339 1.333c-0.303 0.299-0.49 0.714-0.49 1.173 0 0.002 0 0.003 0 0.005v-0c0 0.445 0.173 0.863 0.49 1.178 0.325 0.323 0.752 0.485 1.179 0.485s0.855-0.162 1.18-0.485l1.314-1.308 1.741-1.3 0.901 0.897-3.102 3.088c-0.303 0.299-0.49 0.714-0.49 1.173 0 0.002 0 0.003 0 0.005v-0c0 0.445 0.174 0.863 0.49 1.179 0.325 0.323 0.752 0.485 1.18 0.485s0.855-0.162 1.18-0.485l3.482-3.466c0-0.001 0-0.002 0.001-0.002l1.010-1-0.004-0.003c0.007-0.006 0.015-0.009 0.022-0.015l5.166-5.658 3.471 0.494c0.020 0.003 0.044 0.004 0.068 0.004 0.070 0 0.137-0.014 0.198-0.039l-0.004 0.001c0.017-0.006 0.033-0.015 0.050-0.023 0.019-0.009 0.039-0.015 0.057-0.027l3.213-2.134c0.012-0.008 0.018-0.020 0.029-0.029 0.012-0.010 0.029-0.014 0.040-0.025l1.272-1.192c0.347-0.326 0.564-0.787 0.564-1.299 0-0.4-0.132-0.77-0.355-1.067l0.003 0.005zM2.13 17.77c-0.173 0.093-0.37 0.111-0.558 0.052-0.295-0.093-0.505-0.364-0.505-0.683 0-0.236 0.114-0.445 0.29-0.575l0.002-0.001 1.314-0.632 0.316 0.925 0.133 0.388-0.993 0.527zM5.628 15.943l-1.548 0.8-0.255-0.747-0.183-0.537 2.026-1-0.040 1.483zM20.727 9.322c0 0.918-0.219 1.785-0.599 2.559l-4.181-1.899c-0.043-0.575-0.342-1.073-0.782-1.384l-0.006-0.004 1.464-4.86c2.378 0.755 4.105 2.974 4.105 5.587zM8.938 9.322c0-3.235 2.644-5.867 5.894-5.867 0.253 0 0.5 0.022 0.745 0.053l-1.432 4.753c-0.019 0-0.037-0.005-0.057-0.005-0 0-0.001 0-0.001 0-1.032 0-1.869 0.835-1.871 1.866v0c0.003 1.031 0.84 1.867 1.871 1.867 0 0 0.001 0 0.001 0h-0c0.694 0 1.294-0.383 1.618-0.944l3.863 1.755c-1.075 1.447-2.795 2.39-4.736 2.39-3.25 0-5.895-2.633-5.895-5.867zM14.895 10.122c0 0.441-0.362 0.8-0.806 0.8-0.001 0-0.001 0-0.002 0-0.443 0-0.802-0.358-0.804-0.8v-0c0-0.441 0.361-0.8 0.806-0.8s0.806 0.359 0.806 0.8zM2.465 25.146c-0.11 0.108-0.261 0.175-0.428 0.175s-0.317-0.067-0.427-0.175l0 0c-0.109-0.108-0.176-0.257-0.176-0.422s0.067-0.315 0.176-0.422l0-0 0.962-0.959 0.851 0.848-0.958 0.955zM5.678 28.88c-0.11 0.109-0.261 0.176-0.428 0.176s-0.317-0.067-0.427-0.175l0 0c-0.109-0.108-0.176-0.257-0.176-0.422s0.067-0.315 0.176-0.422l0-0 0.963-0.959 0.852 0.848-0.96 0.955zM9.161 25.411l-0.002 0.001-1.765 1.76-0.851-0.848 1.763-1.756s0.001 0 0.002-0.001c0.040-0.040 0.065-0.088 0.090-0.135 0.007-0.014 0.020-0.026 0.026-0.040 0.017-0.041 0.019-0.085 0.025-0.129 0.004-0.024 0.014-0.047 0.014-0.073 0-0.035-0.012-0.070-0.020-0.105-0.007-0.032-0.007-0.065-0.018-0.096-0.020-0.050-0.055-0.095-0.091-0.137-0.010-0.012-0.014-0.027-0.025-0.038h-0.001l-0.001-0.002-1.607-1.6c-0.017-0.017-0.039-0.024-0.058-0.038-0.025-0.021-0.054-0.040-0.084-0.056l-0.003-0.001c-0.027-0.013-0.058-0.024-0.090-0.032l-0.003-0.001c-0.030-0.009-0.065-0.017-0.101-0.020l-0.002-0c-0.006-0-0.013-0-0.020-0-0.026 0-0.052 0.002-0.077 0.006l0.003-0c-0.039 0.004-0.074 0.011-0.108 0.021l0.004-0.001c-0.036 0.013-0.067 0.028-0.096 0.046l0.002-0.001c-0.020 0.011-0.043 0.015-0.061 0.029l-1.774 1.324-0.901-0.897 2.399-2.386 4.36 4.289-0.927 0.919zM15.979 18.394c-0.015-0.002-0.030 0.004-0.045 0.003-0.008-0-0.017-0.001-0.026-0.001-0.031 0-0.062 0.003-0.092 0.008l0.003-0c-0.030 0.005-0.059 0.011-0.088 0.021-0.037 0.013-0.069 0.029-0.098 0.048l0.002-0.001c-0.030 0.018-0.057 0.038-0.083 0.061-0.013 0.011-0.028 0.017-0.040 0.029l-4.698 5.146-4.328-4.257 2.833-2.818c0.096-0.097 0.156-0.23 0.156-0.377 0-0.295-0.239-0.534-0.534-0.534-0 0-0.001 0-0.001 0h0l-2.219 0.013 0.027-1.607 3.104 0.027c1.264 1.297 3.027 2.101 4.978 2.101 0.001 0 0.002 0 0.003 0h-0c0.438 0 0.864-0.045 1.279-0.122 0.040 0.032 0.079 0.064 0.13 0.085l2.41 0.96 0.331 1.643-3.003-0.427zM20.020 18.573l-0.314-1.558 1.447-1.080 0.947 1.257-2.080 1.381zM23.774 15.742l-0.838 0.785-0.931-1.236 0.831-0.637c0.155-0.12 0.351-0.168 0.543-0.143 0.194 0.027 0.364 0.128 0.48 0.284 0.217 0.292 0.18 0.699-0.085 0.947z"></path>
<path d="M13.602 18.544l-2.143-2.134c-0.096-0.096-0.229-0.155-0.376-0.155s-0.28 0.059-0.376 0.155l-2.143 2.134c-0.097 0.097-0.156 0.231-0.156 0.378s0.060 0.281 0.156 0.378l-0-0 2.143 2.133c0.096 0.096 0.229 0.155 0.376 0.155s0.28-0.059 0.376-0.155l2.143-2.133c0.097-0.097 0.157-0.23 0.157-0.378s-0.060-0.282-0.157-0.378l-0-0zM11.083 20.303l-1.386-1.381 1.386-1.381 1.387 1.381-1.387 1.381zM17.164 5.071l-0.258 1.035c0.071 0.018 1.738 0.452 1.738 2.149h1.067c0-2.017-1.666-2.966-2.546-3.185zM19.711 9.322h-1.067v1.067h1.067v-1.067z"></path>
</symbol>
<symbol id="icon-diagram" viewBox="0 0 32 32">
<path d="M14.925 14.965h1.066v4.797h-1.066v-4.797zM19.19 17.097h1.066v2.665h-1.066v-2.665zM10.661 18.696h1.066v1.066h-1.066v-1.066zM7.463 18.163h1.066v1.599h-1.066v-1.599z"></path>
<path d="M1.599 28.291h25.587c0 0 0 0 0 0 0.883 0 1.599-0.716 1.599-1.599v0-2.133c0-0.883-0.716-1.599-1.599-1.599-0 0-0 0-0.001 0h-0.533v-13.293l3.028-2.868c0.207 0.105 0.452 0.166 0.711 0.166 0.888 0 1.608-0.72 1.608-1.608s-0.72-1.608-1.608-1.608c-0.888 0-1.608 0.72-1.608 1.608 0 0.247 0.055 0.48 0.155 0.689l-0.004-0.010-2.282 2.163v-1.23c0-0.883-0.716-1.599-1.599-1.599v0h-21.322c-0 0-0 0-0.001 0-0.883 0-1.599 0.716-1.599 1.599 0 0 0 0 0 0.001v-0 15.991h-0.533c-0.883 0-1.599 0.716-1.599 1.599 0 0 0 0 0 0.001v-0 2.133c0 0.883 0.716 1.599 1.599 1.599v0zM30.384 4.837c0.294 0 0.533 0.239 0.533 0.533s-0.239 0.533-0.533 0.533v0c-0.294 0-0.533-0.239-0.533-0.533s0.239-0.533 0.533-0.533v0zM3.199 6.969c0-0.295 0.239-0.534 0.533-0.534h21.322c0.294 0 0.533 0.239 0.533 0.534v2.238l-1.066 1.013v-2.185c0-0.295-0.238-0.533-0.533-0.533h-19.19c-0.295 0-0.533 0.239-0.533 0.533v13.326c0 0.295 0.239 0.534 0.533 0.534h19.19c0.294 0 0.533-0.239 0.533-0.534v-9.674l1.066-1.010v12.283h-22.388v-15.991zM7.996 13.899c-0.001 0-0.003 0-0.005 0-0.883 0-1.599 0.716-1.599 1.599s0.716 1.599 1.599 1.599c0.432 0 0.824-0.171 1.112-0.45l-0 0 1.853 0.93c0.215 0.108 0.476 0.057 0.636-0.123l3.938-4.431 3.872 2.902c0.208 0.156 0.498 0.139 0.686-0.040l3.365-3.188v8.131h-18.123v-12.26h18.124v2.66l-3.772 3.572-3.905-2.928c-0.088-0.066-0.199-0.106-0.319-0.106-0.158 0-0.3 0.069-0.398 0.178l-0 0.001-3.993 4.493-1.493-0.746c0.011-0.064 0.018-0.129 0.021-0.194-0-0.883-0.716-1.599-1.599-1.599h-0zM8.529 15.498c0 0.294-0.239 0.533-0.533 0.533s-0.533-0.239-0.533-0.533v0c0-0.294 0.239-0.533 0.533-0.533s0.533 0.239 0.533 0.533v0zM11.727 24.026h5.331v0.533c0 0.294-0.238 0.533-0.533 0.533h-4.264c-0.294 0-0.533-0.239-0.533-0.533v0-0.533zM1.066 24.56c0-0.294 0.239-0.533 0.533-0.533h9.062v0.533c0 0 0 0 0 0 0 0.883 0.716 1.599 1.599 1.599h4.265c0.883 0 1.599-0.716 1.599-1.599 0-0 0-0 0-0.001v0-0.533h9.061c0.295 0 0.534 0.238 0.534 0.533v2.133c0 0.294-0.239 0.533-0.534 0.533h-25.586c-0.294 0-0.533-0.239-0.533-0.533v0-2.133z"></path>
</symbol>
<symbol id="icon-clock" viewBox="0 0 32 32">
<path d="M31.297 15.301c-0.002-8.452-6.855-15.303-15.308-15.301s-15.303 6.855-15.301 15.308c0.002 6.788 4.422 12.543 10.541 14.545l0.108 0.031c0.060 0.019 0.123 0.029 0.187 0.029 0.121 0 0.239-0.032 0.342-0.093 0.135-0.080 0.236-0.207 0.284-0.357l3.865-12.25c1.054-0.004 1.906-0.859 1.906-1.913 0-1.057-0.856-1.913-1.913-1.913-0.303 0-0.59 0.070-0.844 0.196l0.011-0.005-5.106-5.107c-0.115-0.115-0.275-0.187-0.451-0.187-0.352 0-0.638 0.285-0.638 0.638 0 0.176 0.071 0.336 0.187 0.451v0l5.104 5.109c-0.121 0.241-0.191 0.525-0.191 0.826 0 0.601 0.283 1.137 0.723 1.48l0.004 0.003-3.683 11.673c-7.278-2.681-11.005-10.754-8.323-18.032 2.681-7.277 10.755-11.005 18.032-8.323s11.004 10.755 8.323 18.032c-1.345 3.581-4.004 6.406-7.374 7.938l-0.088 0.036-0.398-1.875c-0.063-0.291-0.318-0.505-0.624-0.505-0.163 0-0.312 0.061-0.425 0.162l0.001-0.001-3.837 3.425c-0.132 0.117-0.214 0.287-0.214 0.477 0 0.283 0.185 0.524 0.441 0.607l0.005 0.001 4.899 1.564c0.058 0.020 0.126 0.031 0.196 0.031 0.352 0 0.637-0.285 0.637-0.637 0-0.047-0.005-0.093-0.015-0.137l0.001 0.004-0.391-1.839c5.528-2.374 9.329-7.772 9.329-14.057 0-0.011 0-0.023-0-0.034v0.002zM15.992 14.664c0.352 0 0.638 0.286 0.638 0.638s-0.286 0.638-0.638 0.638v0c-0.352 0-0.638-0.286-0.638-0.638s0.286-0.638 0.638-0.638v0zM18.093 29.527l2.184-1.948 0.603 2.84-2.787-0.892z"></path>
<path d="M15.354 3.185v1.275c0 0.352 0.285 0.638 0.637 0.638s0.638-0.285 0.638-0.638v-1.275c-0.014-0.341-0.294-0.613-0.637-0.613s-0.624 0.271-0.637 0.611l-0 0.001zM3.876 14.664c-0.352 0-0.637 0.285-0.637 0.637s0.285 0.637 0.638 0.637h1.275c0.352 0 0.638-0.285 0.638-0.637s-0.285-0.637-0.638-0.637h-1.275zM28.108 15.939c0.352 0 0.637-0.285 0.637-0.637s-0.285-0.637-0.637-0.637h-1.275c-0.341 0.014-0.613 0.294-0.613 0.637s0.271 0.624 0.611 0.637l0.001 0h1.275z"></path>
</symbol>
<symbol id="icon-antenna" viewBox="0 0 32 32">
<path d="M30.773 22.098l-8.443-8.505 0.937-4.615c0.242 0.094 0.499 0.143 0.759 0.145h0.006c0.008 0 0.017 0 0.026 0 1.192 0 2.159-0.967 2.159-2.159s-0.967-2.159-2.159-2.159c-1.192 0-2.159 0.967-2.159 2.159 0 0.26 0.046 0.508 0.13 0.739l-0.005-0.015-4.96 0.605-8.091-8.133c-0.096-0.098-0.229-0.159-0.376-0.16h-0c-0.14 0.001-0.274 0.057-0.373 0.155l-1.513 1.504c-0.097 0.097-0.156 0.23-0.156 0.377s0.060 0.281 0.156 0.377v0l0.814 0.825c-1.143 2.062-1.816 4.522-1.816 7.139 0 4.106 1.656 7.825 4.336 10.526l-0.001-0.001c0.042 0.041 0.091 0.073 0.146 0.098-0.032 0.164-0.051 0.353-0.052 0.546v6.188h-6.4c-1.472 0.001-2.666 1.194-2.667 2.666v1.067c0 0.295 0.239 0.533 0.534 0.533h24.534c0.294 0 0.534-0.239 0.534-0.534v-1.067c-0.002-1.472-1.195-2.665-2.667-2.666h-6.4v-2.742c1.003 0.21 2.024 0.317 3.049 0.32 2.58-0.003 5.005-0.663 7.117-1.822l-0.077 0.039 0.819 0.823c0.099 0.101 0.235 0.159 0.377 0.16 0.14-0.001 0.274-0.056 0.373-0.155l1.512-1.505c0.096-0.097 0.156-0.23 0.156-0.377s-0.060-0.28-0.156-0.377v0zM23.28 6.233c0.193-0.192 0.458-0.31 0.752-0.31 0.589 0 1.067 0.478 1.067 1.066s-0.477 1.066-1.067 1.066c-0 0-0 0-0 0h-0.003c-0.587-0.003-1.061-0.479-1.061-1.066 0-0.296 0.12-0.563 0.315-0.756l0-0h-0.002zM22.024 9.738l-0.599 2.945-1.175-1.182 1.774-1.764zM21.419 8.836l-1.92 1.909-1.485-1.493 3.405-0.415zM24.004 28.8c0.884 0 1.6 0.716 1.6 1.6v0 0.534h-23.466v-0.534c0-0.884 0.716-1.6 1.6-1.6h20.267zM16.538 26.666v1.067h-5.334v-1.067h5.334zM11.204 25.6v-4.053c0-1.294 1.197-2.346 2.666-2.346s2.667 1.053 2.667 2.346v4.053h-5.334zM17.604 23.904v-2.357c0-1.882-1.675-3.413-3.733-3.413-0.018-0-0.038-0-0.059-0-1.353 0-2.54 0.707-3.213 1.771l-0.009 0.016c-2.36-2.482-3.811-5.846-3.811-9.549 0-2.314 0.567-4.496 1.569-6.414l-0.036 0.077 18.602 18.709c-1.823 0.947-3.98 1.502-6.266 1.502-1.079 0-2.128-0.124-3.136-0.357l0.093 0.018zM28.893 23.221l-21.057-21.18 0.755-0.752 7.935 7.98c0.003 0 0.006 0.007 0.009 0.009l13.114 13.191-0.757 0.752z"></path>
<path d="M13.876 20.267h-0.005c-0.001 0-0.002 0-0.002 0-0.884 0-1.6 0.716-1.6 1.6s0.715 1.599 1.597 1.6h0.005c0.001 0 0.002 0 0.002 0 0.884 0 1.6-0.716 1.6-1.6s-0.715-1.599-1.597-1.6h-0zM14.249 22.245c-0.096 0.096-0.229 0.155-0.376 0.155-0.295 0-0.534-0.239-0.534-0.534 0-0.001 0-0.001 0-0.002v0c0.002-0.292 0.238-0.529 0.53-0.53h0c0.293 0.002 0.531 0.24 0.531 0.534 0 0.148-0.060 0.281-0.157 0.378l-0 0h0.005z"></path>
</symbol>
<symbol id="icon-close-x" viewBox="0 0 32 32">
<path d="M32 3.224l-3.224-3.224-12.776 12.776-12.776-12.776-3.224 3.224 12.776 12.776-12.776 12.776 3.224 3.224 12.776-12.776 12.776 12.776 3.224-3.224-12.776-12.776 12.776-12.776z"></path>
</symbol>
<symbol id="icon-client-2" viewBox="0 0 61 32">
<path fill="#8e8f99" style="fill: var(--color1, #8e8f99)" d="M29.86 7.976h-0.050c-0.063-0.004-0.143-0.007-0.223-0.008l-0.006-0h-0.165c-0.144 0-0.292 0.004-0.438 0.011-0.005-0-0.011-0.001-0.017-0.001s-0.012 0-0.017 0.001l0.001-0c-1.404 0.082-2.707 0.433-3.885 1.002l0.061-0.027-0.157 0.076v8.052l0.368-0.125c0.323-0.111 0.667-0.211 1.023-0.303 0.88-0.235 1.892-0.377 2.935-0.391l0.008-0v1.058c-0.132 0.001-0.259 0.004-0.387 0.011h-0.031c-0.827 0.046-1.601 0.171-2.347 0.366l0.082-0.018c-1.025 0.261-1.923 0.621-2.757 1.082l0.059-0.030v-10.326c0.815-0.484 1.758-0.879 2.756-1.135l0.075-0.016c0.8-0.215 1.718-0.34 2.665-0.344h0.158c0.186 0.005 0.367 0.013 0.537 0.026 0.448 0.032 0.893 0.103 1.329 0.212v1.041c-0.371-0.091-0.811-0.16-1.261-0.193l-0.027-0.002-0.027-0.002c-0.077-0.008-0.168-0.014-0.26-0.016l-0.003-0zM31.692 9.040c0.231 0.018 0.47 0.026 0.712 0.026 0.998-0.004 1.964-0.135 2.885-0.378l-0.080 0.018c1.025-0.261 1.922-0.622 2.757-1.082l-0.060 0.030v10.142c-0.815 0.484-1.758 0.879-2.756 1.135l-0.075 0.016c-0.8 0.214-1.718 0.339-2.666 0.343h-0.002c-0.019 0-0.042 0-0.066 0-0.695 0-1.37-0.087-2.014-0.251l0.056 0.012v-10.208c0.156 0.036 0.317 0.069 0.481 0.097 0.269 0.045 0.552 0.079 0.828 0.099zM36.853 9.119l-0.368 0.124c-0.338 0.114-0.68 0.216-1.023 0.306-0.916 0.245-1.969 0.388-3.054 0.392h-0.002c-0.24 0-0.461-0.007-0.674-0.020l-0.293-0.019v8.283l0.252 0.022c0.233 0.021 0.475 0.031 0.717 0.031 0.857-0.004 1.686-0.117 2.476-0.327l-0.068 0.015c0.722-0.183 1.348-0.415 1.941-0.703l-0.060 0.026 0.157-0.076v-8.054z"></path>
<path fill="#8e8f99" style="fill: var(--color1, #8e8f99)" d="M24.632 22.259c-0.099-0.102-0.237-0.166-0.39-0.166-0.007 0-0.013 0-0.020 0l0.001-0c-0.002-0-0.005-0-0.008-0-0.082 0-0.161 0.016-0.232 0.046l0.004-0.001c-0.14 0.056-0.248 0.166-0.301 0.303l-0.001 0.004c-0.029 0.073-0.043 0.15-0.042 0.228v1.38c-0.004 0.097 0.015 0.194 0.054 0.283 0.033 0.071 0.080 0.134 0.138 0.185 0.055 0.046 0.12 0.080 0.189 0.098 0.067 0.019 0.137 0.028 0.206 0.028 0.077 0.001 0.153-0.016 0.223-0.048 0.207-0.092 0.349-0.296 0.349-0.533v-0.154h-0.361v0.123c0 0.003 0 0.005 0 0.008 0 0.041-0.008 0.081-0.022 0.117l0.001-0.002c-0.012 0.030-0.030 0.056-0.052 0.078l-0 0c-0.041 0.032-0.094 0.052-0.151 0.053h-0c-0.006 0.001-0.014 0.001-0.021 0.001-0.061 0-0.114-0.029-0.148-0.075l-0-0c-0.030-0.049-0.048-0.108-0.048-0.171 0-0.005 0-0.010 0-0.015l-0 0.001v-1.287c-0.002-0.071 0.013-0.142 0.044-0.206 0.033-0.051 0.090-0.085 0.155-0.085 0.008 0 0.015 0 0.022 0.001l-0.001-0c0.002-0 0.004-0 0.007-0 0.063 0 0.119 0.030 0.154 0.077l0 0c0.037 0.049 0.060 0.11 0.060 0.177 0 0.003-0 0.005-0 0.008v-0 0.119h0.357v-0.141c0-0.002 0-0.004 0-0.006 0-0.085-0.016-0.166-0.046-0.24l0.002 0.004c-0.028-0.075-0.069-0.14-0.121-0.194l0 0zM26.774 22.244c-0.11-0.094-0.253-0.151-0.41-0.152h-0c-0.073 0-0.147 0.013-0.215 0.039-0.149 0.053-0.266 0.163-0.329 0.302l-0.001 0.004c-0.036 0.084-0.055 0.175-0.053 0.267v1.323c-0.002 0.093 0.016 0.185 0.053 0.271 0.033 0.071 0.080 0.134 0.14 0.185 0.055 0.051 0.12 0.091 0.191 0.116 0.069 0.025 0.142 0.039 0.215 0.039 0.158-0 0.301-0.059 0.411-0.156l-0.001 0.001c0.057-0.052 0.104-0.115 0.136-0.185 0.037-0.085 0.055-0.178 0.052-0.271v-1.323c0-0.004 0-0.008 0-0.012 0-0.092-0.019-0.18-0.054-0.259l0.002 0.004c-0.034-0.076-0.079-0.14-0.136-0.193l-0-0zM26.606 24.027c0.001 0.006 0.001 0.013 0.001 0.020 0 0.067-0.028 0.128-0.072 0.171l-0 0c-0.046 0.038-0.105 0.062-0.17 0.062s-0.124-0.023-0.17-0.062l0 0c-0.045-0.043-0.073-0.104-0.073-0.17 0-0.007 0-0.015 0.001-0.022l-0 0.001v-1.323c-0.001-0.006-0.001-0.013-0.001-0.020 0-0.067 0.028-0.128 0.072-0.171l0-0c0.046-0.038 0.105-0.062 0.17-0.062s0.124 0.023 0.17 0.062l-0-0c0.045 0.043 0.073 0.104 0.073 0.171 0 0.007-0 0.014-0.001 0.021l0-0.001v1.324zM29.588 24.618v-2.505h-0.347l-0.456 1.326h-0.006l-0.459-1.326h-0.343v2.505h0.358v-1.524h0.006l0.351 1.077h0.179l0.353-1.077h0.007v1.524h0.358zM31.621 22.289c-0.055-0.062-0.125-0.109-0.202-0.137-0.073-0.025-0.158-0.039-0.246-0.039-0.005 0-0.010 0-0.014 0h-0.531v2.505h0.357v-0.979h0.184c0.112 0.005 0.222-0.019 0.322-0.068 0.082-0.046 0.148-0.111 0.195-0.189l0.001-0.002c0.041-0.067 0.069-0.141 0.082-0.218 0.012-0.079 0.019-0.17 0.019-0.262 0-0.008-0-0.016-0-0.024v0.001c0.004-0.12-0.008-0.241-0.035-0.358-0.025-0.090-0.071-0.168-0.132-0.23l0 0zM31.437 23.052c-0.002 0.048-0.014 0.093-0.034 0.132l0.001-0.002c-0.021 0.038-0.052 0.069-0.091 0.087l-0.001 0.001c-0.044 0.020-0.096 0.032-0.15 0.032-0.006 0-0.013-0-0.019-0l0.001 0h-0.163v-0.852h0.184c0.005-0 0.011-0 0.017-0 0.052 0 0.102 0.012 0.146 0.033l-0.002-0.001c0.037 0.021 0.066 0.053 0.083 0.091l0.001 0.001c0.020 0.044 0.030 0.092 0.031 0.14v0.167c0 0.058 0.004 0.119 0 0.172h-0.004zM33.312 22.113h-0.293l-0.552 2.505h0.357l0.105-0.538h0.487l0.105 0.538h0.357l-0.565-2.505zM32.983 23.739l0.176-0.908h0.007l0.175 0.908h-0.357zM35.618 23.622h-0.007l-0.539-1.509h-0.343v2.505h0.357v-1.507h0.007l0.545 1.506h0.336v-2.505h-0.357v1.509zM37.799 22.113l-0.287 0.996h-0.007l-0.287-0.996h-0.378l0.49 1.447v1.059h0.357v-1.059l0.49-1.446h-0.378zM23.636 25.325h0.172v0.483h0.117v-0.483h0.171v-0.099h-0.46v0.099zM25.083 25.226l-0.225 0.582h0.124l0.048-0.132h0.232l0.049 0.132h0.127l-0.231-0.582h-0.124zM25.064 25.578l0.079-0.216 0.079 0.216h-0.158zM26.512 25.593h0.135v0.075c-0.038 0.030-0.086 0.049-0.138 0.049h-0c-0.003 0-0.005 0-0.008 0-0.047 0-0.088-0.022-0.115-0.056l-0-0c-0.027-0.039-0.043-0.087-0.043-0.139 0-0.005 0-0.009 0-0.014l-0 0.001c0-0.129 0.056-0.194 0.167-0.194 0.004-0 0.008-0.001 0.013-0.001 0.057 0 0.105 0.039 0.119 0.093l0 0.001 0.115-0.022c-0.025-0.114-0.107-0.171-0.247-0.171-0.002-0-0.005-0-0.008-0-0.075 0-0.144 0.028-0.195 0.075l0-0c-0.052 0.051-0.084 0.123-0.084 0.202 0 0.008 0 0.015 0.001 0.023l-0-0.001c-0 0.004-0 0.009-0 0.014 0 0.078 0.028 0.15 0.075 0.205l-0-0c0.051 0.053 0.123 0.086 0.203 0.086 0.006 0 0.013-0 0.019-0.001l-0.001 0c0.003 0 0.006 0 0.010 0 0.091 0 0.175-0.035 0.237-0.093l-0 0v-0.229h-0.252v0.098zM27.972 25.226h-0.118v0.582h0.407v-0.099h-0.289v-0.483zM29.206 25.226h-0.117v0.582h0.117v-0.582zM30.413 25.615l-0.238-0.388h-0.114v0.582h0.109v-0.38l0.234 0.38h0.117v-0.582h-0.108v0.389zM31.504 25.552h0.29v-0.099h-0.29v-0.127h0.312v-0.099h-0.429v0.582h0.441v-0.099h-0.324v-0.157zM34.15 25.456h-0.229v-0.229h-0.116v0.581h0.116v-0.255h0.229v0.255h0.117v-0.582h-0.117v0.229zM35.247 25.552h0.291v-0.099h-0.291v-0.127h0.313v-0.099h-0.429v0.582h0.441v-0.099h-0.324v-0.157zM36.736 25.552c0.101-0.016 0.153-0.069 0.153-0.162 0.001-0.005 0.001-0.011 0.001-0.017 0-0.046-0.023-0.087-0.058-0.112l-0-0c-0.043-0.022-0.094-0.035-0.147-0.035-0.008 0-0.016 0-0.024 0.001l0.001-0h-0.247v0.581h0.117v-0.243h0.023c0.003-0 0.006-0 0.009-0 0.023 0 0.045 0.005 0.064 0.014l-0.001-0c0.017 0.011 0.031 0.025 0.041 0.043l0.127 0.185h0.14l-0.071-0.113c-0.032-0.057-0.075-0.104-0.127-0.139l-0.001-0.001zM36.618 25.471h-0.086v-0.146h0.092c0.007-0.001 0.016-0.001 0.025-0.001 0.034 0 0.066 0.005 0.096 0.015l-0.002-0.001c0.016 0.014 0.025 0.035 0.025 0.057 0 0.013-0.003 0.025-0.009 0.036l0-0c-0.006 0.010-0.013 0.019-0.022 0.025l-0 0c-0.029 0.009-0.063 0.015-0.097 0.015-0.008 0-0.015-0-0.023-0.001l0.001 0zM37.858 25.552h0.289v-0.099h-0.289v-0.127h0.313v-0.099h-0.431v0.582h0.441v-0.099h-0.324v-0.157z"></path>
</symbol>
</defs>
</svg>
